<?xml version="1.0" encoding="UTF-8" standalone="no"?>
<!-- Created with Inkscape (http://www.inkscape.org/) -->

<svg
   version="1.1"
   id="svg2"
   width="163"
   height="163"
   viewBox="0 0 163 163"
   xmlns="http://www.w3.org/2000/svg"
   xmlns:svg="http://www.w3.org/2000/svg">
  <defs
     id="defs6" />
  <g
     id="g8">
    <path
       style="fill:#000000"
       d="m 15.428132,148.21936 c -0.662761,-0.79858 -1.049234,-2.26108 -0.858828,-3.25 0.328508,-1.70619 3.751622,-1.81117 67.012945,-2.05511 l 66.666751,-0.25706 0.69218,2.18087 c 1.53829,4.8467 1.72639,4.83326 -67.621602,4.83326 -55.327894,0 -64.860762,-0.21006 -65.891446,-1.45196 z M 61.635645,115.0535 C 46.516231,100.84505 42.888263,96.926295 42.888263,94.803494 c 0,-1.931759 0.572151,-2.713726 2.150153,-2.938643 1.59548,-0.227407 5.980963,3.293102 17,13.646989 l 14.849847,13.95347 0.5,-53.03832 c 0.446648,-47.378874 0.67223,-53.146922 2.114077,-54.056141 0.887743,-0.559804 2.350243,-0.735332 3.25,-0.390063 1.486373,0.570375 1.635923,5.521418 1.635923,54.159147 0,29.442262 0.274745,53.531387 0.610544,53.531387 0.335799,0 7.574532,-6.75 16.086073,-15 8.51154,-8.250002 16.02179,-15.000002 16.68945,-15.000002 1.72557,0 3.61393,2.111769 3.61393,4.041493 0,0.90282 -3.0375,4.499386 -6.75,7.992369 -3.7125,3.49297 -12.43655,11.8893 -19.38677,18.6585 -6.950225,6.7692 -13.138903,12.30764 -13.752618,12.30764 -0.613715,0 -9.552167,-7.92802 -19.863227,-17.61782 z"
       id="path170" />
    <path
       style="fill:#000000;stroke-width:0.264658"
       d="m 79.63515,131.07725 c -6.552672,-5.36982 -28.119268,-25.57174 -32.818336,-30.74168 -3.111389,-3.423169 -3.953642,-4.857987 -3.717529,-6.33299 0.08588,-0.53648 0.41115,-1.183835 0.722826,-1.438568 2.03565,-1.663736 4.401989,0.18589 24.949907,19.501848 4.345419,4.08489 7.984572,7.45908 8.087011,7.49822 0.102436,0.0391 0.333564,-16.69385 0.513618,-37.184404 0.478247,-54.426046 0.78881,-66.730927 1.741786,-69.011717 0.676378,-1.618803 3.576631,-1.962276 4.136438,-0.489874 0.672614,1.769107 0.812247,9.02609 1.063495,55.271259 0.145511,26.783354 0.349205,49.408186 0.452652,50.277406 l 0.188087,1.5804 2.117261,-1.88184 c 2.378642,-2.11415 6.687377,-6.1783 15.776484,-14.88092 6.21937,-5.954926 12.22987,-11.44097 14.04831,-12.822504 0.97307,-0.739271 0.98112,-0.740448 1.94239,-0.284298 1.00906,0.47883 2.06835,1.863931 2.34279,3.063381 0.33283,1.454601 -1.82678,3.782619 -17.30421,18.653631 -15.228264,14.6316 -19.65068,18.74895 -21.723421,20.22487 l -0.693757,0.494 z"
       id="path337" />
    <path
       style="fill:#000000;stroke-width:0.264658"
       d="M 79.63515,131.08057 C 73.065521,125.7088 51.539702,105.54915 46.813332,100.34183 43.71057,96.923339 42.863249,95.477104 43.099285,94.00258 c 0.08588,-0.53648 0.41115,-1.183835 0.722826,-1.438568 2.042234,-1.669116 4.580196,0.33178 26.179837,20.639848 l 6.74877,6.34522 0.174806,-0.95438 c 0.09614,-0.52491 0.309525,-17.21097 0.474182,-37.080145 0.439832,-53.074339 0.76169,-65.865661 1.714727,-68.146596 0.676378,-1.618803 3.576631,-1.962276 4.136438,-0.489874 0.667392,1.755377 0.810035,9.115607 1.068598,55.13893 0.150063,26.710573 0.354471,49.338805 0.454239,50.284955 l 0.181397,1.72027 1.323288,-1.18318 c 2.466625,-2.20546 4.754964,-4.35815 12.972417,-12.20346 9.17105,-8.755714 15.19489,-14.306607 17.24886,-15.894587 l 1.37358,-1.061962 0.96579,0.458294 c 1.00291,0.475915 2.08964,1.866387 2.374,3.037534 0.35006,1.441757 -1.89843,3.863639 -17.46724,18.814201 -15.108683,14.50871 -19.53021,18.62291 -21.591091,20.09039 l -0.693757,0.494 z"
       id="path339" />
    <path
       style="fill:#000000;stroke-width:0.264658"
       d="m 79.63515,131.08057 c -6.578558,-5.37907 -28.41269,-25.83129 -32.959004,-30.87299 -2.975739,-3.29998 -3.810169,-4.74752 -3.576861,-6.205 0.177246,-1.107259 0.984514,-1.901719 1.932378,-1.901719 2.08247,0 6.009985,3.28207 22.720695,18.986779 l 8.99836,8.45666 0.176807,-1.74596 c 0.09725,-0.96028 0.309993,-17.64527 0.472774,-37.077758 0.437087,-52.178749 0.765482,-65.082181 1.714134,-67.352623 0.676378,-1.618803 3.576631,-1.962276 4.136438,-0.489874 0.664299,1.747241 0.804263,9.074984 1.031678,54.013415 0.13204,26.091539 0.323568,48.68564 0.42562,50.20912 0.163664,2.44328 0.235984,2.7417 0.613227,2.53038 0.568165,-0.31825 4.577127,-4.05867 14.189879,-13.23934 8.929825,-8.528437 14.951005,-14.075487 16.988395,-15.650647 l 1.37358,-1.061962 0.96579,0.458294 c 1.00291,0.475915 2.08964,1.866387 2.374,3.037534 0.35191,1.449368 -2.02215,4.001118 -17.86423,19.201321 -15.441412,14.81577 -19.108143,18.23001 -21.067084,19.61639 l -0.820774,0.58088 z"
       id="path341" />
    <path
       style="fill:#ffffff;stroke-width:3;stroke-dasharray:none;stroke:#000000;stroke-opacity:1"
       d="m 28.041795,149.27084 c -11.03179,-0.27847 -12.343553,-0.48151 -12.981921,-2.00934 -0.204256,-0.48885 -0.371375,-1.25601 -0.371375,-1.7048 0,-1.18726 1.041891,-1.51625 5.863621,-1.8515 4.858846,-0.33783 59.227192,-0.76554 99.07314,-0.7794 l 28.58302,-0.01 0.46315,1.57612 c 0.64491,2.19464 0.59928,2.58267 -0.3733,3.17413 -0.99237,0.60349 -3.12972,0.98854 -7.63259,1.37503 -3.90733,0.33537 -100.623428,0.53263 -112.623745,0.2297 z"
       id="path485" />
    <path
       style="fill:#ffffff;stroke-width:3;stroke:#000000;stroke-opacity:1;stroke-dasharray:none"
       d="m 79.4888,130.99478 c -5.950277,-4.96708 -21.779334,-19.66237 -29.338205,-27.23685 -5.806357,-5.818335 -7.011399,-7.421999 -7.011399,-9.330728 0,-1.062129 0.119947,-1.411605 0.6248,-1.820408 2.070827,-1.676855 4.233802,-0.0248 23.035297,17.594136 5.298283,4.96504 9.722279,9.06293 9.831103,9.10643 0.374986,0.14988 0.506076,-6.53571 0.785139,-40.042395 0.409296,-49.143265 0.755513,-63.27485 1.61028,-65.726835 0.683082,-1.959486 3.865262,-2.23738 4.333015,-0.378393 0.550144,2.186435 0.68675,10.135145 0.915488,53.269332 0.251666,47.457741 0.350028,53.200821 0.911012,53.190901 0.349116,-0.006 3.694094,-3.09784 14.458274,-13.36337 14.148226,-13.492806 17.743996,-16.650886 18.641846,-16.372683 1.0574,0.327638 1.96231,1.175006 2.54897,2.386886 0.57759,1.19313 0.58081,1.247435 0.12433,2.095072 -0.88703,1.647111 -4.79692,5.706945 -14.16939,14.712765 -17.436331,16.75423 -22.079662,21.09855 -24.389326,22.81872 l -0.967126,0.72029 z"
       id="path487" />
  </g>
</svg>
