<?xml version="1.0" encoding="UTF-8" standalone="no"?>
<!-- Created with Inkscape (http://www.inkscape.org/) -->

<svg
   version="1.1"
   id="svg1"
   width="1440"
   height="1440"
   viewBox="0 0 1440 1440"
   sodipodi:docname="newtab.svg"
   inkscape:version="1.4 (unknown)"
   xmlns:inkscape="http://www.inkscape.org/namespaces/inkscape"
   xmlns:sodipodi="http://sodipodi.sourceforge.net/DTD/sodipodi-0.dtd"
   xmlns="http://www.w3.org/2000/svg"
   xmlns:svg="http://www.w3.org/2000/svg">
  <defs
     id="defs1">
    <clipPath
       clipPathUnits="userSpaceOnUse"
       id="clipPath25">
      <rect
         style="fill:#ff0000;stroke:none;stroke-width:3;stroke-linecap:square;stroke-linejoin:miter;paint-order:stroke markers fill;stop-color:#000000"
         id="rect25-8"
         width="78"
         height="45.033199"
         x="763.61322"
         y="452.82422" />
    </clipPath>
  </defs>
  <sodipodi:namedview
     id="namedview1"
     pagecolor="#505050"
     bordercolor="#eeeeee"
     borderopacity="1"
     inkscape:showpageshadow="0"
     inkscape:pageopacity="0"
     inkscape:pagecheckerboard="0"
     inkscape:deskcolor="#505050"
     inkscape:zoom="0.27743056"
     inkscape:cx="246.90864"
     inkscape:cy="290.1627"
     inkscape:window-width="1920"
     inkscape:window-height="1008"
     inkscape:window-x="0"
     inkscape:window-y="0"
     inkscape:window-maximized="1"
     inkscape:current-layer="g1" />
  <g
     inkscape:groupmode="layer"
     inkscape:label="Image"
     id="g1">
    <path
       style="fill:#ffffff;fill-opacity:1;stroke:#000000;stroke-width:34.01574803;stroke-dasharray:none;stroke-dashoffset:0;stroke-opacity:1"
       d="m 332.4908,1260.7898 c -41.31211,-2.6872 -72.22357,-15.9099 -98.13851,-41.9798 -11.95099,-12.0223 -20.17696,-23.6661 -27.3401,-38.6994 -6.79185,-14.2541 -10.22411,-26.1856 -13.65649,-47.4735 -0.79753,-4.9464 -1.18513,-110.7628 -1.43712,-392.35473 -0.37874,-423.21888 -0.71714,-396.60629 5.3099,-417.58943 7.47032,-26.00797 19.79383,-46.49663 39.23693,-65.23411 16.33174,-15.73902 33.24877,-26.01191 54.27144,-32.95639 23.09794,-7.63004 14.56305,-7.19826 142.29175,-7.19826 127.36881,0 117.81438,-0.49759 131.79182,6.86354 22.08461,11.63074 34.51766,37.96162 29.42594,62.31859 -4.21335,20.15504 -19.12685,37.32851 -38.03378,43.79737 l -6.32128,2.16279 -110.61078,0.48379 -110.61078,0.48379 -5.50577,2.71982 c -6.60809,3.26436 -11.5849,8.82335 -14.20411,15.86565 -1.92199,5.16766 -1.93122,7.02435 -1.90166,382.27177 0.0187,238.54629 0.37342,379.74401 0.96532,384.33321 1.78192,13.8159 7.54824,21.3297 19.14209,24.9431 5.02733,1.567 28.2762,1.6681 383.83266,1.6681 355.55653,0 378.80533,-0.1011 383.83263,-1.6681 11.887,-3.7047 17.2598,-10.9969 19.1243,-25.9563 0.6513,-5.2248 1.0128,-44.2611 1.0128,-109.3504 0,-97.63822 0.068,-101.48966 1.9001,-108.69837 2.7669,-10.88311 7.0528,-18.34815 15.3805,-26.78921 17.8789,-18.12195 43.5922,-22.31614 66.399,-10.83062 10.0204,5.0463 20.4067,15.53902 25.3034,25.5627 6.8223,13.96526 6.5931,9.17785 6.1754,129.0101 -0.4075,116.8728 -0.3978,116.6495 -6.0187,138.4121 -12.7512,49.3705 -50.9054,87.7874 -99.8717,100.5592 -23.9078,6.2358 7.5897,5.775 -405.54305,5.9325 -206.04864,0.078 -379.83961,-0.1956 -386.20215,-0.6095 z M 640.40084,852.97904 c -24.8948,-6.34133 -42.34238,-27.80323 -43.63534,-53.67483 -0.54689,-10.94322 1.00181,-18.25719 6.14633,-29.02674 3.39872,-7.11492 6.98788,-10.80286 183.45977,-188.50961 98.99637,-99.68898 185.18726,-185.92241 191.53536,-191.62986 22.26174,-20.01512 42.50364,-35.78586 66.60694,-51.89455 l 12.7443,-8.51724 v -8.42892 -8.42891 l -11.7825,2.77081 c -18.2262,4.28615 -44.0681,9.29444 -58.91232,11.4175 -32.35299,4.62724 -41.71052,5.12825 -104.62558,5.60169 -67.70073,0.50945 -68.3048,0.46328 -81.73297,-6.24777 -9.71519,-4.8554 -20.32791,-15.59773 -25.104,-25.41058 -11.16695,-22.94344 -7.18257,-48.51501 10.32368,-66.25687 7.31488,-7.41332 13.64703,-11.46299 23.68071,-15.14485 l 6.25193,-2.29413 162.54981,-0.29671 c 169.85654,-0.31004 176.97154,-0.16668 190.44284,3.83711 29.0082,8.62144 50.5865,31.3568 59.4736,62.66248 l 2.082,7.33336 0.2597,168.57447 c 0.2244,145.67173 0.067,169.506 -1.1615,175.43101 -4.5793,22.09382 -22.5803,40.31567 -44.4267,44.97183 -30.9953,6.60606 -61.7449,-13.66672 -68.2586,-45.00181 -1.3072,-6.28871 -1.4471,-15.26028 -1.0484,-67.24698 0.2549,-33.22869 0.9427,-64.95391 1.5421,-71.11729 3.0686,-31.56085 6.7716,-54.68809 13.9179,-86.92488 l 4.1104,-18.54158 h -8.4215 -8.4215 l -9.0791,13.78804 c -11.3092,17.17519 -24.4175,34.78333 -39.4369,52.97514 -15.5358,18.81728 -377.05688,383.11192 -385.00267,387.95639 -9.2773,5.65622 -17.03345,7.94532 -28.30481,8.3536 -6.88297,0.24935 -11.90613,-0.0943 -15.77298,-1.07932 z"
       id="path1" />
  </g>
</svg>
